<svg viewBox="0 0 45 16" xmlns="http://www.w3.org/2000/svg">
  <path d="M2.5638852,-1.03584031e-16 L42.4361148,1.03584031e-16 C43.3276335,-6.01853049e-17 43.6509198,0.0928256111 43.9768457,0.267132704 C44.3027716,0.441439796 44.5585602,0.697228371 44.7328673,1.0231543 C44.9071744,1.34908022 45,1.67236646 45,2.5638852 L45,13.4361148 C45,14.3276335 44.9071744,14.6509198 44.7328673,14.9768457 C44.5585602,15.3027716 44.3027716,15.5585602 43.9768457,15.7328673 C43.6509198,15.9071744 43.3276335,16 42.4361148,16 L2.5638852,16 C1.67236646,16 1.34908022,15.9071744 1.0231543,15.7328673 C0.697228371,15.5585602 0.441439796,15.3027716 0.267132704,14.9768457 C0.0928256111,14.6509198 4.01235366e-17,14.3276335 -6.90560205e-17,13.4361148 L6.90560205e-17,2.5638852 C-4.01235366e-17,1.67236646 0.0928256111,1.34908022 0.267132704,1.0231543 C0.441439796,0.697228371 0.697228371,0.441439796 1.0231543,0.267132704 C1.34908022,0.0928256111 1.67236646,6.01853049e-17 2.5638852,-1.03584031e-16 Z" fill="#ebe6ff"></path>
  <path d="M6.72630705,11.6904633 C7.28988474,11.6904633 7.79886584,11.6006432 8.25325035,11.4210028 C8.70763485,11.2413624 9.09685569,10.9877524 9.42091286,10.6601729 C9.74497003,10.3325934 9.99329645,9.93808898 10.1658921,9.47665975 C10.3384878,9.01523052 10.4247856,8.4992047 10.4247856,7.9285823 C10.4247856,7.41431766 10.3472937,6.92999308 10.1923098,6.47560858 C10.037326,6.02122407 9.80485016,5.62495851 9.49488243,5.28681189 C9.18491471,4.94866528 8.79921623,4.68096588 8.337787,4.48371369 C7.87635777,4.2864615 7.33919779,4.18783541 6.72630705,4.18783541 L6.72630705,4.18783541 L4,4.18783541 L4,11.6904633 L6.72630705,11.6904633 Z M6.72630705,10.4118465 L5.45825726,10.4118465 L5.45825726,5.46645228 L6.72630705,5.46645228 C7.07854311,5.46645228 7.39379438,5.52633241 7.67206086,5.64609267 C7.95032734,5.76585293 8.18456432,5.93492623 8.37477178,6.15331259 C8.56497925,6.37169894 8.70939604,6.63235362 8.80802213,6.93527663 C8.90664822,7.23819963 8.95596127,7.56930152 8.95596127,7.9285823 C8.95596127,8.28081835 8.90664822,8.60839788 8.80802213,8.91132089 C8.70939604,9.21424389 8.56674043,9.47665975 8.38005533,9.69856846 C8.19337022,9.92047718 7.96089442,10.094834 7.68262794,10.221639 C7.40436146,10.348444 7.08558783,10.4118465 6.72630705,10.4118465 L6.72630705,10.4118465 Z M17.6497875,11.7432988 C18.1781416,11.7432988 18.6677497,11.6393891 19.1186118,11.4315698 C19.569474,11.2237506 19.9569337,10.9454841 20.2809908,10.5967704 C20.605048,10.2480567 20.8586579,9.84650761 21.0418207,9.3921231 C21.2249834,8.93773859 21.3165648,8.46045874 21.3165648,7.96028354 C21.3165648,7.48828723 21.2285058,7.02333564 21.0523878,6.56542877 C20.8762698,6.1075219 20.6297045,5.69892808 20.3126921,5.3396473 C19.9956796,4.98036653 19.6135035,4.68977178 19.1661637,4.46786307 C18.7188239,4.24595436 18.2239323,4.135 17.6814887,4.135 C17.1531347,4.135 16.6635266,4.23890964 16.2126644,4.44672891 C15.7618023,4.65454818 15.3725814,4.93457584 15.0450019,5.28681189 C14.7174224,5.63904795 14.46029,6.04411941 14.2736049,6.50202628 C14.0869198,6.95993315 13.9935773,7.43897418 13.9935773,7.93914938 C13.9935773,8.41819041 14.0816363,8.88666436 14.2577543,9.34457123 C14.4338723,9.8024781 14.6821988,10.2093107 15.0027336,10.5650692 C15.3232684,10.9208276 15.7072057,11.2061388 16.1545455,11.4210028 C16.6018852,11.6358668 17.1002993,11.7432988 17.6497875,11.7432988 Z M17.6603546,10.4541148 C17.3151633,10.4541148 17.0069567,10.3836676 16.7357349,10.2427732 C16.4645132,10.1018787 16.2355597,9.91519364 16.0488746,9.68271784 C15.8621895,9.45024205 15.7195339,9.18254265 15.6209078,8.87961964 C15.5222817,8.57669663 15.4729687,8.26320655 15.4729687,7.93914938 C15.4729687,7.62918165 15.5205206,7.32449746 15.6156243,7.02509682 C15.710728,6.72569617 15.8498613,6.45799677 16.033024,6.22199862 C16.2161868,5.98600046 16.4451402,5.79579299 16.7198843,5.65137621 C16.9946284,5.50695943 17.3081185,5.43475104 17.6603546,5.43475104 C17.9985012,5.43475104 18.3031854,5.50343707 18.5744071,5.64080913 C18.8456289,5.77818119 19.0745823,5.96310512 19.2612674,6.19558091 C19.4479526,6.42805671 19.5923693,6.69575611 19.6945178,6.99867911 C19.7966662,7.30160212 19.8477405,7.61509221 19.8477405,7.93914938 C19.8477405,8.2491171 19.8001886,8.55380129 19.7050849,8.85320194 C19.6099811,9.15260258 19.4690867,9.42206316 19.2824016,9.66158368 C19.0957165,9.9011042 18.8667631,10.0930728 18.5955413,10.2374896 C18.3243195,10.3819064 18.0125906,10.4541148 17.6603546,10.4541148 Z M28.4992984,11.7538658 C28.8022214,11.7538658 29.1121891,11.7151199 29.4292016,11.6376279 C29.746214,11.560136 30.0438535,11.4474205 30.32212,11.2994813 C30.6003864,11.1515422 30.850474,10.9701406 31.0723827,10.7552766 C31.2942915,10.5404126 31.4651259,10.2920862 31.5848862,10.0102974 L31.5848862,10.0102974 L30.390806,9.32343707 C30.3062693,9.52773398 30.1935538,9.70209083 30.0526594,9.84650761 C29.911765,9.99092439 29.7585423,10.1089235 29.5929913,10.2005048 C29.4274404,10.2920862 29.2530835,10.3590111 29.0699208,10.4012794 C28.886758,10.4435477 28.71064,10.4646819 28.5415667,10.4646819 C28.2175095,10.4646819 27.9198701,10.3942347 27.6486483,10.2533402 C27.3774265,10.1124458 27.1449508,9.92576072 26.9512209,9.69328492 C26.7574911,9.46080913 26.6077908,9.19134855 26.50212,8.88490318 C26.3964491,8.57845781 26.3436137,8.25968419 26.3436137,7.9285823 C26.3436137,7.63270401 26.3894044,7.33506455 26.4809858,7.0356639 C26.5725672,6.73626325 26.708178,6.46856385 26.8878184,6.2325657 C27.0674588,5.99656754 27.2928899,5.80459889 27.5641117,5.65665975 C27.8353334,5.50872061 28.154107,5.43475104 28.5204325,5.43475104 C28.6895058,5.43475104 28.8621015,5.45412402 29.0382195,5.49286999 C29.2143376,5.53161595 29.3834109,5.59325726 29.5454395,5.67779391 C29.707468,5.76233057 29.8589295,5.87680728 29.999824,6.02122407 C30.1407184,6.16564085 30.2604786,6.34352006 30.3591047,6.55486169 L30.3591047,6.55486169 L31.4792154,5.78346473 C31.2326502,5.29737898 30.8575188,4.9028746 30.3538212,4.59995159 C29.8501236,4.29702858 29.2530835,4.14556708 28.5627009,4.14556708 C27.977989,4.14556708 27.4566797,4.25476026 26.9987728,4.47314661 C26.5408659,4.69153296 26.1534063,4.97684417 25.8363938,5.32908022 C25.5193814,5.68131627 25.2780997,6.0811042 25.1125487,6.52844398 C24.9469978,6.97578377 24.8642223,7.4284071 24.8642223,7.88631397 C24.8642223,8.365355 24.9540425,8.83559013 25.1336829,9.29701936 C25.3133233,9.75844859 25.5634109,10.1705648 25.8839457,10.5333679 C26.2044805,10.896171 26.5866566,11.1902882 27.030474,11.4157192 C27.4742915,11.6411503 27.9638996,11.7538658 28.4992984,11.7538658 Z M38.0490582,11.775 C38.4153837,11.775 38.7658586,11.7344929 39.1004828,11.6534786 C39.4351071,11.5724643 39.7309854,11.4438981 39.9881177,11.2677801 C40.24525,11.0916621 40.4495469,10.8609474 40.6010084,10.5756362 C40.7524699,10.290325 40.8282007,9.94689488 40.8282007,9.54534578 C40.8282007,9.20015445 40.7718429,8.9095597 40.6591274,8.67356155 C40.5464118,8.43756339 40.3861444,8.23502766 40.1783252,8.06595436 C39.9705059,7.89688105 39.7168959,7.75598663 39.4174953,7.64327109 C39.1180946,7.53055556 38.7852316,7.42488474 38.4189061,7.32625864 C38.1371172,7.25581143 37.8887908,7.18888658 37.6739268,7.12548409 C37.4590628,7.0620816 37.2811836,6.99163439 37.1402892,6.91414246 C36.9993948,6.83665053 36.8919628,6.74683034 36.8179932,6.64468188 C36.7440236,6.54253343 36.7070389,6.41396727 36.7070389,6.2589834 C36.7070389,5.991284 36.8056649,5.78346473 37.0029171,5.63552559 C37.2001693,5.48758645 37.49957,5.41361687 37.9011191,5.41361687 C38.1265501,5.41361687 38.3484589,5.44179576 38.5668452,5.49815353 C38.7852316,5.5545113 38.9877673,5.62319733 39.1744524,5.70421162 C39.3611375,5.78522591 39.5196437,5.86800138 39.6499711,5.95253804 C39.7802984,6.03707469 39.8701186,6.10399954 39.9194317,6.15331259 L39.9194317,6.15331259 L40.5640236,4.96979945 C40.2329217,4.74436837 39.8454621,4.54887736 39.4016447,4.38332642 C38.9578272,4.21777547 38.4717415,4.135 37.9433874,4.135 C37.5629725,4.135 37.207214,4.18607423 36.8761122,4.28822268 C36.5450103,4.39037114 36.2544155,4.54007146 36.0043279,4.73732365 C35.7542403,4.93457584 35.5587493,5.18114108 35.4178549,5.47701936 C35.2769605,5.77289765 35.2065133,6.11104426 35.2065133,6.4914592 C35.2065133,6.78029276 35.2505428,7.02861918 35.3386018,7.23643845 C35.4266608,7.44425772 35.5587493,7.62742047 35.7348673,7.78592669 C35.9109854,7.94443292 36.1311329,8.08180498 36.3953099,8.19804288 C36.659487,8.31428077 36.9712159,8.42171277 37.3304967,8.52033887 C37.626375,8.60487552 37.8940744,8.68236745 38.1335949,8.75281466 C38.3731154,8.82326187 38.5774123,8.9007538 38.7464856,8.98529046 C38.9155589,9.06982711 39.0458862,9.1684532 39.1374676,9.28116874 C39.229049,9.39388428 39.2748397,9.53125634 39.2748397,9.69328492 C39.2748397,10.2075496 38.8732906,10.4646819 38.0701924,10.4646819 C37.7813588,10.4646819 37.49957,10.4294583 37.2248259,10.3590111 C36.9500817,10.2885639 36.6999941,10.202266 36.4745631,10.1001176 C36.249132,9.99796911 36.053641,9.89582065 35.88809,9.7936722 C35.7225391,9.69152374 35.6080624,9.60874827 35.5446599,9.54534578 L35.5446599,9.54534578 L34.9000679,10.8028285 C35.3368406,11.1127962 35.8299711,11.3523167 36.3794593,11.52139 C36.9289476,11.6904633 37.4854805,11.775 38.0490582,11.775 Z" fill="#3f20ba"></path>
</svg>
