<svg viewBox="0 0 47 16" xmlns="http://www.w3.org/2000/svg">
  <path d="M2.5638852,-1.03584031e-16 L44.4361148,1.03584031e-16 C45.3276335,-6.01853049e-17 45.6509198,0.0928256111 45.9768457,0.267132704 C46.3027716,0.441439796 46.5585602,0.697228371 46.7328673,1.0231543 C46.9071744,1.34908022 47,1.67236646 47,2.5638852 L47,13.4361148 C47,14.3276335 46.9071744,14.6509198 46.7328673,14.9768457 C46.5585602,15.3027716 46.3027716,15.5585602 45.9768457,15.7328673 C45.6509198,15.9071744 45.3276335,16 44.4361148,16 L2.5638852,16 C1.67236646,16 1.34908022,15.9071744 1.0231543,15.7328673 C0.697228371,15.5585602 0.441439796,15.3027716 0.267132704,14.9768457 C0.0928256111,14.6509198 4.01235366e-17,14.3276335 -6.90560205e-17,13.4361148 L6.90560205e-17,2.5638852 C-4.01235366e-17,1.67236646 0.0928256111,1.34908022 0.267132704,1.0231543 C0.441439796,0.697228371 0.697228371,0.441439796 1.0231543,0.267132704 C1.34908022,0.0928256111 1.67236646,6.01853049e-17 2.5638852,-1.03584031e-16 Z" fill="#ebe6ff"></path>
  <path d="M6.88,11.8608696 C9.14909091,11.8608696 10.7309091,10.3304348 10.7309091,7.9884058 C10.7309091,5.66956522 9.14909091,4.12753623 6.86909091,4.12753623 L4,4.12753623 L4,11.8608696 L6.88,11.8608696 Z M6.86909091,10.4115942 L5.54909091,10.4115942 L5.54909091,5.57681159 L6.88,5.57681159 C8.36363636,5.57681159 9.14909091,6.63188406 9.14909091,7.9884058 C9.14909091,9.31014493 8.30909091,10.4115942 6.86909091,10.4115942 Z M18.5636364,12 C20.7563636,12 22.36,10.3304348 22.36,8 C22.36,5.66956522 20.7563636,4 18.5636364,4 C16.36,4 14.7563636,5.66956522 14.7563636,8 C14.7563636,10.3304348 16.36,12 18.5636364,12 Z M18.5636364,10.5391304 C17.2109091,10.5391304 16.3490909,9.43768116 16.3490909,8 C16.3490909,6.55072464 17.2109091,5.46086957 18.5636364,5.46086957 C19.9054545,5.46086957 20.7672727,6.55072464 20.7672727,8 C20.7672727,9.43768116 19.9054545,10.5391304 18.5636364,10.5391304 Z M30.2581818,12 C31.8509091,12 32.7781818,11.0608696 33.2909091,10.0985507 L31.96,9.41449275 C31.6545455,10.0405797 31,10.5391304 30.2581818,10.5391304 C28.9272727,10.5391304 27.9672727,9.46086957 27.9672727,8 C27.9672727,6.53913043 28.9272727,5.46086957 30.2581818,5.46086957 C31,5.46086957 31.6545455,5.95942029 31.96,6.58550725 L33.2909091,5.88985507 C32.7781818,4.91594203 31.8509091,4 30.2581818,4 C28.0654545,4 26.3745455,5.6115942 26.3745455,8 C26.3745455,10.3768116 28.0654545,12 30.2581818,12 Z M40.0872727,12 C42.04,12 43,10.9333333 43,9.51884058 C43,6.63188406 38.8218182,7.45507246 38.8218182,6.23768116 C38.8218182,5.77391304 39.1927273,5.47246377 39.8472727,5.47246377 C40.5890909,5.47246377 41.3745455,5.73913043 41.9636364,6.31884058 L42.8254545,5.08985507 C42.1054545,4.3826087 41.1454545,4.0115942 39.9890909,4.0115942 C38.2763636,4.0115942 37.2290909,5.07826087 37.2290909,6.36521739 C37.2290909,9.27536232 41.4181818,8.33623188 41.4181818,9.68115942 C41.4181818,10.1333333 41.0145455,10.5391304 40.1527273,10.5391304 C39.1490909,10.5391304 38.3527273,10.0521739 37.84,9.48405797 L36.9890909,10.7710145 C37.6763636,11.5014493 38.68,12 40.0872727,12 Z" fill="#3f20ba"></path>
</svg>